<svg width="57" height="57" viewBox="0 0 57 57" fill="none" xmlns="http://www.w3.org/2000/svg">
<circle cx="28.411" cy="28.4386" r="26.5162" stroke="#5F5F5F" stroke-width="3"/>
<path d="M36.3865 33.8851C36.3865 35.0669 36.0911 36.1994 35.5002 37.2827C34.9093 38.3413 34.0353 39.2276 32.8782 39.9416C31.7457 40.6556 30.3793 41.0618 28.779 41.1603V44.1516H26.7848V41.1603C24.5444 40.9633 22.7225 40.2494 21.3192 39.0184C19.9159 37.7628 19.2019 36.1748 19.1773 34.2544H22.7594C22.8579 35.2885 23.2395 36.1871 23.9043 36.9503C24.5936 37.7135 25.5538 38.1936 26.7848 38.3906V29.1582C25.1352 28.7396 23.8058 28.3088 22.7964 27.8656C21.787 27.4225 20.9253 26.7331 20.2113 25.7975C19.4973 24.862 19.1403 23.6064 19.1403 22.0307C19.1403 20.0365 19.8297 18.387 21.2084 17.0821C22.6117 15.7773 24.4705 15.051 26.7848 14.9033V11.8381H28.779V14.9033C30.8717 15.0756 32.5581 15.7527 33.8383 16.9344C35.1186 18.0916 35.8572 19.6057 36.0541 21.4768H32.4719C32.3488 20.6151 31.9672 19.8396 31.3271 19.1502C30.687 18.4362 29.8376 17.9685 28.779 17.7469V26.7577C30.4039 27.1763 31.721 27.6071 32.7305 28.0503C33.7645 28.4688 34.6262 29.1458 35.3155 30.0814C36.0295 31.0169 36.3865 32.2849 36.3865 33.8851ZM22.5748 21.8461C22.5748 23.0524 22.9318 23.9757 23.6458 24.6158C24.3597 25.2559 25.4061 25.7852 26.7848 26.2038V17.673C25.5045 17.7961 24.4828 18.2147 23.7196 18.9286C22.9564 19.618 22.5748 20.5905 22.5748 21.8461ZM28.779 38.4275C30.1084 38.2798 31.1425 37.7997 31.8811 36.9872C32.6443 36.1748 33.0259 35.2023 33.0259 34.0698C33.0259 32.8634 32.6566 31.9402 31.918 31.3001C31.1794 30.6353 30.1331 30.106 28.779 29.7121V38.4275Z" fill="#5F5F5F"/>
</svg>
